#!OML:ASF E:\motion texture\Top Level 1\Subject 1\Session 1\male.ASF
:FULLY-SPECIFIED
:DEGREES
264
root 30.3101 17.5651 7.13599 -142.815 -85.6875 154.959
lowerback 3.92875 -7.35683 2.41242
upperback 3.66631 -10.4264 9.40887
thorax 3.04988 -5.57451 8.60188
lowerneck -5.8292 -7.76968 -9.20142
upperneck 32.4782 -14.5747 7.01292
head 13.0198 -7.37751 2.21734
rclavicle -3.26007e-014 2.06736e-014
rhumerus 0.850958 1.9043 -77.6568
rradius 39.331
rwrist 25.4938
rhand -31.7379 -23.0452
rfingers 7.12502
rthumb -4.9957 -52.9663
lclavicle -3.26007e-014 2.06736e-014
lhumerus 14.7394 -29.7967 105.682
lradius 24.8188
lwrist -37.0967
lhand -23.0281 20.4297
lfingers 7.12502
lthumb 3.41599 50.3821
rfemur -38.7922 4.00749 10.8381
rtibia 20.0838
rfoot 0.907928 -6.38356
rtoes 2.13659
lfemur -6.70068 0.612651 -27.7893
ltibia 27.3303
lfoot -12.6209 -2.99925
ltoes -11.8222
265
root 30.1644 17.5811 7.13096 -144.711 -85.5836 156.962
lowerback 3.96454 -7.36068 2.53004
upperback 3.67794 -10.442 9.5173
thorax 3.0472 -5.58755 8.65956
lowerneck -5.82146 -7.75918 -9.19217
upperneck 32.48 -14.5477 6.9519
head 13.0092 -7.37197 2.19719
rclavicle 4.85035e-014 -2.70347e-014
rhumerus 0.80713 2.04105 -77.4456
rradius 39.3265
rwrist 25.6177
rhand -31.5722 -23.0044
rfingers 7.12502
rthumb -4.83568 -52.9293
lclavicle 4.85035e-014 -2.70347e-014
lhumerus 14.6553 -29.8699 105.642
lradius 24.9691
lwrist -36.8883
lhand -22.7775 20.4521
lfingers 7.12502
lthumb 3.65798 50.4004
rfemur -38.6512 4.21667 11.0406
rtibia 20.3704
rfoot 1.02479 -6.04839
rtoes 2.88749
lfemur -6.90204 0.71846 -27.6108
ltibia 28.1088
lfoot -11.9616 -3.15655
ltoes -12.4939
266
root 30.0182 17.5978 7.12501 -146.507 -85.4884 158.857
lowerback 4.0045 -7.35714 2.64787
upperback 3.68741 -10.4469 9.62456
thorax 3.03815 -5.59502 8.71699
lowerneck -5.81174 -7.75396 -9.18456
upperneck 32.4811 -14.5289 6.89435
head 12.9993 -7.36979 2.17746
rclavicle -1.59028e-015 4.29375e-014
rhumerus 0.722566 2.17181 -77.2193
rradius 39.3349
rwrist 25.7232
rhand -31.396 -22.9679
rfingers 7.12502
rthumb -4.6655 -52.8965
lclavicle -1.59028e-015 4.29375e-014
lhumerus 14.515 -29.9357 105.611
lradius 25.1537
lwrist -36.6524
lhand -22.5112 20.4646
lfingers 7.12502
lthumb 3.91515 50.4083
rfemur -38.4826 4.42507 11.246
rtibia 20.6641
rfoot 1.11366 -5.73382
rtoes 3.64578
lfemur -7.13348 0.829731 -27.4144
ltibia 28.9314
lfoot -11.2662 -3.31302
ltoes -13.1165
267
root 29.8718 17.6151 7.1181 -148.228 -85.404 160.667
lowerback 4.04237 -7.34988 2.76503
upperback 3.69726 -10.4469 9.73094
thorax 3.03 -5.60011 8.77371
lowerneck -5.79769 -7.75061 -9.18189
upperneck 32.4781 -14.5125 6.84089
head 12.9879 -7.36873 2.16004
rclavicle -9.93923e-014 1.74931e-014
rhumerus 0.603305 2.30426 -76.9827
rradius 39.3536
rwrist 25.81
rhand -31.2055 -22.9276
rfingers 7.12502
rthumb -4.48162 -52.8601
lclavicle -9.93923e-014 1.74931e-014
lhumerus 14.3257 -29.9892 105.58
lradius 25.3713
lwrist -36.3864
lhand -22.2312 20.4695
lfingers 7.12502
lthumb 4.18552 50.4081
rfemur -38.284 4.63544 11.4542
rtibia 20.9569
rfoot 1.17224 -5.44371
rtoes 4.39893
lfemur -7.39497 0.946718 -27.1984
ltibia 29.7971
lfoot -10.5396 -3.46427
ltoes -13.6862
268
root 29.7251 17.6329 7.11026 -149.877 -85.3328 162.394
lowerback 4.06676 -7.33725 2.90098
upperback 3.71384 -10.4393 9.82051
thorax 3.0285 -5.59969 8.79951
lowerneck -5.78328 -7.75179 -9.16752
upperneck 32.4704 -14.5076 6.8016
head 12.976 -7.36966 2.14445
rclavicle 1.24837e-013 -1.59028e-015
rhumerus 0.448095 2.41032 -76.7585
rradius 39.381
rwrist 25.8849
rhand -30.9968 -22.8859
rfingers 7.12502
rthumb -4.28008 -52.8226
lclavicle 1.24837e-013 -1.59028e-015
lhumerus 14.0894 -30.0642 105.525
lradius 25.623
lwrist -36.0767
lhand -21.9387 20.4624
lfingers 7.12502
lthumb 4.468 50.3952
rfemur -38.0534 4.84459 11.6651
rtibia 21.2427
rfoot 1.19766 -5.17801
rtoes 5.13867
lfemur -7.68608 1.06788 -26.9629
ltibia 30.7034
lfoot -9.78953 -3.60542
ltoes -14.2098
269
root 29.5783 17.651 7.10144 -151.476 -85.2736 164.061
lowerback 4.09136 -7.31856 3.0381
upperback 3.72922 -10.4229 9.90625
thorax 3.02338 -5.5944 8.82084
lowerneck -5.76787 -7.75766 -9.15292
upperneck 32.4612 -14.5098 6.76508
head 12.9642 -7.37316 2.1289
rclavicle -1.59028e-015 3.18055e-014
rhumerus 0.253077 2.50775 -76.5274
rradius 39.4188
rwrist 25.94
rhand -30.772 -22.8513
rfingers 7.12502
rthumb -4.06299 -52.7923
lclavicle -1.59028e-015 3.18055e-014
lhumerus 13.8016 -30.1349 105.472
lradius 25.9025
lwrist -35.7372
lhand -21.6298 20.4475
lfingers 7.12502
lthumb 4.76627 50.3739
rfemur -37.7912 5.0572 11.8777
rtibia 21.518
rfoot 1.18832 -4.94064
rtoes 5.85857
lfemur -8.00609 1.19445 -26.7077
ltibia 31.6465
lfoot -9.02087 -3.73409
ltoes -14.6782
